{"title":"Terminator Genisys {2015} V2 CAM XVID AC3-MRG","uid":12090072,"size":1668479652,"categoryP":"video","categoryS":"movies","magnet":"?xt=urn:btih:9acdf0724f068894281e4ef23daaf46556e9e136&amp;dn=Terminator+Genisys+%7B2015%7D+V2+CAM+XVID+AC3-MRG&amp;tr=udp%3A%2F%2Ftracker.openbittorrent.com%3A80&amp;tr=udp%3A%2F%2Fopen.demonii.com%3A1337&amp;tr=udp%3A%2F%2Ftracker.coppersurfer.tk%3A6969&amp;tr=udp%3A%2F%2Fexodus.desync.com%3A6969","seeders":23,"leechers":3,"uploader":"xxxlavalxxx","files":15,"time":1436019278,"description":" &lt;a href=&quot;http://extraimago.com/image/75z&quot; rel=&quot;nofollow&quot; target=&quot;_NEW&quot;&gt;http://extraimago.com/image/75z&lt;/a&gt;\n\nTerminator Genisys {2015} V2 CAM XVID AC3-MRG\n\nfull audio till end credits .....allso included opening credit and\nend credits scene........\n\n\nFormat : AVI\nFormat/Info : Audio Video Interleave\nFile size : 1.52 GiB\nDuration : 1h 56mn\nOverall bit rate : 1 864 Kbps\n\nVideo\nID : 0\nFormat : MPEG-4 Visual\nFormat profile : Advanced Simple@L5\nFormat settings, BVOP : 2\nFormat settings, QPel : No\nFormat settings, GMC : No warppoints\nFormat settings, Matrix : Default (H.263)\nMuxing mode : Packed bitstream\nCodec ID : XVID\nCodec ID/Hint : XviD\nDuration : 1h 56mn\nBit rate : 1 629 Kbps\nWidth : 720 pixels\nHeight : 324 pixels\nDisplay aspect ratio : 2.222\nFrame rate : 25.000 fps\nColor space : YUV\nChroma subsampling : 4:2:0\nBit depth : 8 bits\nScan type : Progressive\nCompression mode : Lossy\nBits/(Pixel*Frame) : 0.279\nStream size : 1.33 GiB (87%)\nWriting library : XviD 73\n\nAudio\nID : 1\nFormat : AC-3\nFormat/Info : Audio Coding 3\nMode extension : CM (complete main)\nFormat settings, Endianness : Big\nCodec ID : 2000\nDuration : 1h 56mn\nBit rate mode : Constant\nBit rate : 224 Kbps\nChannel(s) : 2 channels\nChannel positions : Front: L R\nSampling rate : 48.0 KHz\nBit depth : 16 bits\nCompression mode : Lossy\nStream size : 187 MiB (12%)\nAlignment : Aligned on interleaves\nInterleave, duration : 32 ms (0.80 video frame)\n\n &lt;a href=&quot;\nhttp://extraimago.com/image/75p&quot; rel=&quot;nofollow&quot; target=&quot;_NEW&quot;&gt;\nhttp://extraimago.com/image/75p&lt;/a&gt; &lt;a href=&quot;\nhttp://extraimago.com/image/75Y&quot; rel=&quot;nofollow&quot; target=&quot;_NEW&quot;&gt;\nhttp://extraimago.com/image/75Y&lt;/a&gt; &lt;a href=&quot;\nhttp://extraimago.com/image/75C&quot; rel=&quot;nofollow&quot; target=&quot;_NEW&quot;&gt;\nhttp://extraimago.com/image/75C&lt;/a&gt; &lt;a href=&quot;\nhttp://extraimago.com/image/75B&quot; rel=&quot;nofollow&quot; target=&quot;_NEW&quot;&gt;\nhttp://extraimago.com/image/75B&lt;/a&gt; &lt;a href=&quot;\nhttp://extraimago.com/image/754&quot; rel=&quot;nofollow&quot; target=&quot;_NEW&quot;&gt;\nhttp://extraimago.com/image/754&lt;/a&gt; &lt;a href=&quot;\nhttp://extraimago.com/image/75e&quot; rel=&quot;nofollow&quot; target=&quot;_NEW&quot;&gt;\nhttp://extraimago.com/image/75e&lt;/a&gt; &lt;a href=&quot;\nhttp://extraimago.com/image/75Z&quot; rel=&quot;nofollow&quot; target=&quot;_NEW&quot;&gt;\nhttp://extraimago.com/image/75Z&lt;/a&gt; &lt;a href=&quot;\nhttp://extraimago.com/image/75K&quot; rel=&quot;nofollow&quot; target=&quot;_NEW&quot;&gt;\nhttp://extraimago.com/image/75K&lt;/a&gt; &lt;a href=&quot;\nhttp://extraimago.com/image/75J&quot; rel=&quot;nofollow&quot; target=&quot;_NEW&quot;&gt;\nhttp://extraimago.com/image/75J&lt;/a&gt; &lt;a href=&quot;\nhttp://extraimago.com/image/750&quot; rel=&quot;nofollow&quot; target=&quot;_NEW&quot;&gt;\nhttp://extraimago.com/image/750&lt;/a&gt;","torrent":{"xt":"urn:btih:9acdf0724f068894281e4ef23daaf46556e9e136","amp;dn":"Terminator+Genisys+%7B2015%7D+V2+CAM+XVID+AC3-MRG","amp;tr":["udp%3A%2F%2Ftracker.openbittorrent.com%3A80","udp%3A%2F%2Fopen.demonii.com%3A1337","udp%3A%2F%2Ftracker.coppersurfer.tk%3A6969","udp%3A%2F%2Fexodus.desync.com%3A6969"],"infoHash":"9acdf0724f068894281e4ef23daaf46556e9e136","infoHashBuffer":{"type":"Buffer","data":[154,205,240,114,79,6,136,148,40,30,78,242,61,170,244,101,86,233,225,54]},"announce":[],"urlList":[]}}